HIERARCHY
ROOT Hips
{
	OFFSET 0.000000 0.000000 0.000000
	CHANNELS 6 Xposition Yposition Zposition Xrotation Yrotation Zrotation
	JOINT LeftUpLeg_virtual
	{
		OFFSET 0.000000 0.000000 0.000000
		CHANNELS 3 Xrotation Yrotation Zrotation
		JOINT LeftUpLeg
		{
			OFFSET 10.205400 -3.823500 0.155100
			CHANNELS 3 Xrotation Yrotation Zrotation
			JOINT LeftLeg
			{
				OFFSET 0.708757 -12.982077 0.567790
				CHANNELS 3 Xrotation Yrotation Zrotation
				JOINT LeftFoot
				{
					OFFSET -0.708756 -10.717838 -2.184338
					CHANNELS 3 Xrotation Yrotation Zrotation
					JOINT LeftToeBase
					{
						OFFSET 0.108149 -7.191104 7.560241
						CHANNELS 3 Xrotation Yrotation Zrotation
						JOINT LeftToe_End
						{
							OFFSET 0.070230 0.081724 4.490308
							CHANNELS 3 Xrotation Yrotation Zrotation
							End Site
							{
								OFFSET 0 0 0
							}
						}
					}
				}
			}
		}
	}
	JOINT RightUpLeg_virtual
	{
		OFFSET 0.000000 0.000000 0.000000
		CHANNELS 3 Xrotation Yrotation Zrotation
		JOINT RightUpLeg
		{
			OFFSET -10.205400 -3.823500 0.005500
			CHANNELS 3 Xrotation Yrotation Zrotation
			JOINT RightLeg
			{
				OFFSET -0.708756 -12.982134 0.610632
				CHANNELS 3 Xrotation Yrotation Zrotation
				JOINT RightFoot
				{
					OFFSET 0.708754 -10.717769 -1.945823
					CHANNELS 3 Xrotation Yrotation Zrotation
					JOINT RightToeBase
					{
						OFFSET -0.108140 -7.191069 7.372968
						CHANNELS 3 Xrotation Yrotation Zrotation
						JOINT RightToe_End
						{
							OFFSET -0.070227 0.081735 4.479403
							CHANNELS 3 Xrotation Yrotation Zrotation
							End Site
							{
								OFFSET 0 0 0
							}
						}
					}
				}
			}
		}
	}
	JOINT Spine_virtual
	{
		OFFSET 0.000000 0.000000 0.000000
		CHANNELS 3 Xrotation Yrotation Zrotation
		JOINT Spine
		{
			OFFSET 0.000000 6.876099 0.125700
			CHANNELS 3 Xrotation Yrotation Zrotation
			JOINT Spine1
			{
				OFFSET 0.000000 5.730043 0.104720
				CHANNELS 3 Xrotation Yrotation Zrotation
				JOINT Spine1_split
				{
					OFFSET 0.000000 5.730043 0.104720
					CHANNELS 3 Xrotation Yrotation Zrotation
					JOINT Spine2
					{
						OFFSET 0.000000 5.730043 0.104720
						CHANNELS 3 Xrotation Yrotation Zrotation
						JOINT Neck_virtual
						{
							OFFSET 0.000000 0.000000 0.000000
							CHANNELS 3 Xrotation Yrotation Zrotation
							JOINT Neck
							{
								OFFSET 0.000000 10.314075 0.188496
								CHANNELS 3 Xrotation Yrotation Zrotation
								JOINT Head
								{
									OFFSET 0.000000 7.643700 -2.377400
									CHANNELS 3 Xrotation Yrotation Zrotation
									JOINT HeadTop_End
									{
										OFFSET 0.000000 43.788605 -13.619600
										CHANNELS 3 Xrotation Yrotation Zrotation
										End Site
										{
											OFFSET 0 0 0
										}
									}
								}
							}
						}
						JOINT LeftShoulder_virtual
						{
							OFFSET 0.000000 0.000000 0.000000
							CHANNELS 3 Xrotation Yrotation Zrotation
							JOINT LeftShoulder
							{
								OFFSET 2.196100 4.412489 0.087492
								CHANNELS 3 Xrotation Yrotation Zrotation
								JOINT LeftShoulder_split
								{
									OFFSET 2.196100 4.412489 0.087492
									CHANNELS 3 Xrotation Yrotation Zrotation
									JOINT LeftArm
									{
										OFFSET 8.771219 -2.981674 -0.026999
										CHANNELS 3 Xrotation Yrotation Zrotation
										JOINT LeftForeArm
										{
											OFFSET 8.512804 0.000000 -0.000000
											CHANNELS 3 Xrotation Yrotation Zrotation
											JOINT LeftHand
											{
												OFFSET 18.484802 0.000000 -0.000000
												CHANNELS 3 Xrotation Yrotation Zrotation
												End Site
												{
													OFFSET 0 0 0
												}
											}
										}
									}
								}
							}
						}
						JOINT RightShoulder_virtual
						{
							OFFSET 0.000000 0.000000 0.000000
							CHANNELS 3 Xrotation Yrotation Zrotation
							JOINT RightShoulder
							{
								OFFSET -2.196100 4.412496 0.070690
								CHANNELS 3 Xrotation Yrotation Zrotation
								JOINT RightShoulder_split
								{
									OFFSET -2.196100 4.412496 0.070690
									CHANNELS 3 Xrotation Yrotation Zrotation
									JOINT RightArm
									{
										OFFSET -8.771282 -2.981682 -0.094208
										CHANNELS 3 Xrotation Yrotation Zrotation
										JOINT RightForeArm
										{
											OFFSET -8.494598 0.000000 0.000000
											CHANNELS 3 Xrotation Yrotation Zrotation
											JOINT RightHand
											{
												OFFSET -18.483803 0.000000 0.000001
												CHANNELS 3 Xrotation Yrotation Zrotation
												End Site
												{
													OFFSET 0 0 0
												}
											}
										}
									}
								}
							}
						}
					}
				}
			}
		}
	}
}
MOTION
Frames: 9
Frame Time: 0.03333333
2.535918 29.305954 -2.929100 0.000000 0.000000 0.000000 -1.458096 -64.269430 -0.370351 -42.896535 22.041434 43.366326 59.649456 1.356302 -0.244304 0.948504 6.434280 -9.662713 -0.118188 1.058614 -3.931510 0.000000 0.000000 0.000000 0.255515 -61.946442 0.923108 -22.699533 -22.621161 -31.425198 40.064910 7.197811 -1.757277 -16.862830 -4.772922 17.352850 -1.713390 1.087802 -0.158361 0.000000 0.000000 0.000000 -0.482270 -61.658378 -0.209643 8.063542 1.129646 -5.308406 2.288675 0.875173 -2.626798 1.942016 3.425110 -1.239937 0.000000 0.000000 0.000000 2.542285 -0.095974 -2.831545 0.355033 0.951309 1.893907 0.074264 43.906461 -7.233737 0.000000 0.000000 0.000000 3.327833 0.382617 -2.555667 9.817837 9.823146 1.832936 -0.943736 -1.691501 4.754141 6.760245 -6.064131 -60.451525 -19.396074 -44.244494 -10.480311 0.000000 0.000000 0.000000 2.981796 0.276057 -3.096249 0.579236 2.222921 1.984462 4.074906 2.186377 1.323384 18.901722 20.396241 56.344300 -3.289407 45.378810 2.867466 0.000000 0.000000 0.000000 
2.380105 29.016438 -2.542389 0.000000 0.000000 0.000000 1.889186 -67.831305 3.087222 -42.665060 17.493078 40.189735 58.403179 -0.516526 1.048089 -0.822283 2.854219 -13.450591 -0.539075 0.780745 -1.829004 0.000000 0.000000 0.000000 3.504290 -66.430085 4.402001 -25.215527 -19.729486 -31.426178 39.804324 9.079802 -1.899511 -17.615807 -3.717616 18.919264 -0.230278 1.792524 -1.689116 0.000000 0.000000 0.000000 2.297850 -66.358532 2.805719 8.187199 1.484063 -6.548640 1.991568 1.534762 -3.308126 1.190399 2.371202 -0.185811 0.000000 0.000000 0.000000 2.362754 0.394457 -3.488236 0.762097 1.356356 1.638251 -0.077727 47.283398 -6.972196 0.000000 0.000000 0.000000 2.890995 0.758073 -3.272696 8.472540 9.083807 -0.611470 0.073645 -0.024223 4.993120 -1.722442 0.648432 -56.295604 -13.840609 -41.224259 -6.109232 0.000000 0.000000 0.000000 2.477827 0.667741 -3.650951 0.155846 1.787048 1.956923 3.350501 3.416854 1.709434 17.373387 18.579185 58.955276 -4.421868 37.670877 3.478161 0.000000 0.000000 0.000000 
2.239061 28.748930 -2.091925 0.000000 0.000000 0.000000 6.330494 -70.845229 7.588048 -42.120520 13.764222 36.435299 56.048826 -2.746081 1.977041 -4.141196 0.414719 -17.052640 -1.608027 0.406568 0.478279 0.000000 0.000000 0.000000 7.284411 -70.335096 8.496907 -27.433964 -16.067557 -31.292037 40.495365 10.544778 -2.270394 -17.748194 -3.082057 19.817821 0.201790 1.851872 -1.892404 0.000000 0.000000 0.000000 5.805394 -70.300289 6.436118 8.575000 1.612051 -7.676752 1.993631 2.002098 -3.852619 0.754334 1.582312 0.423821 0.000000 0.000000 0.000000 2.290411 0.803811 -4.037356 0.824000 1.707991 1.528209 -1.017525 50.606231 -6.524612 0.000000 0.000000 0.000000 2.623823 1.065523 -3.878622 7.209122 8.199467 -2.561703 1.226638 1.422051 5.277207 -9.110067 6.474914 -52.019837 -9.892335 -40.619070 -3.454399 0.000000 0.000000 0.000000 2.277664 1.012936 -4.074277 -0.120538 1.770336 2.126280 3.155083 4.660289 1.569264 16.077758 15.932878 60.780808 -5.616155 31.174684 4.261976 0.000000 0.000000 0.000000 
2.117656 28.517155 -1.596203 0.000000 0.000000 0.000000 10.804914 -72.919735 12.068300 -41.188267 11.299726 32.821576 53.216951 -4.328822 2.211712 -8.617610 0.129346 -19.111834 -2.325336 0.179587 1.754739 0.000000 0.000000 0.000000 10.744419 -73.237386 12.290559 -28.991595 -12.725851 -31.397782 41.578551 11.608260 -2.741572 -17.490866 -2.724908 20.494047 0.032872 1.404989 -1.060042 0.000000 0.000000 0.000000 8.795328 -72.961023 9.588741 9.246865 1.531635 -8.489726 2.342740 2.241118 -4.173727 0.895545 0.992439 1.085580 0.000000 0.000000 0.000000 2.410815 1.096694 -4.398337 0.437388 1.981995 1.525577 -2.757238 53.589664 -5.879922 0.000000 0.000000 0.000000 2.641751 1.300193 -4.287367 6.130590 7.045863 -4.218815 2.393660 2.140023 5.411272 -15.138817 11.059490 -48.041874 -7.009181 -41.595312 -1.806838 0.000000 0.000000 0.000000 2.432224 1.267774 -4.335249 -0.213154 2.156361 2.508077 3.456154 5.490608 1.115153 15.488147 13.044182 61.133014 -6.896410 26.982772 5.199613 0.000000 0.000000 0.000000 
2.031630 28.360727 -1.043476 0.000000 0.000000 0.000000 14.136533 -74.100968 15.238768 -40.067700 9.949589 30.074033 50.676090 -4.941694 1.758035 -12.514729 1.665300 -19.974946 -1.637307 0.284216 1.226202 0.000000 0.000000 0.000000 12.966319 -75.026650 14.676649 -29.469760 -10.704261 -32.056783 42.055790 12.377348 -3.156643 -17.259538 -2.374211 21.409078 -0.090010 0.757188 0.128025 0.000000 0.000000 0.000000 10.530943 -74.515786 11.461931 10.083514 1.297186 -8.834455 2.974682 2.264834 -4.244283 0.764707 0.855167 1.280802 0.000000 0.000000 0.000000 2.773089 1.239407 -4.517474 -0.292068 2.193436 1.546297 -5.017794 55.929772 -5.175874 0.000000 0.000000 0.000000 2.961783 1.435852 -4.464723 5.279026 5.690583 -5.755611 2.880465 1.604252 5.187926 -19.381492 14.529394 -44.696854 -5.068490 -43.073994 -0.829610 0.000000 0.000000 0.000000 2.894390 1.403115 -4.396221 -0.141421 2.764472 3.155816 4.166447 5.612147 0.188045 15.523441 10.248562 60.297518 -8.330997 25.716274 6.329517 0.000000 0.000000 0.000000 
1.955733 28.327536 -0.616913 0.000000 0.000000 0.000000 15.356775 -74.417534 16.202025 -39.134590 9.166355 28.393851 48.944101 -5.191204 1.190609 -13.992232 3.875337 -21.081579 -0.575336 0.625156 -0.535680 0.000000 0.000000 0.000000 13.503417 -75.584656 15.105342 -28.794134 -10.368619 -33.219697 41.218395 12.997520 -3.457130 -17.280630 -1.958277 22.908567 0.096156 0.167487 1.025313 0.000000 0.000000 0.000000 10.684337 -74.943773 11.722142 10.919291 0.948547 -8.705163 3.770779 2.119491 -4.098326 0.850791 1.039628 1.102337 0.000000 0.000000 0.000000 3.362736 1.224950 -4.395961 -1.240896 2.328201 1.519972 -7.481521 57.551584 -4.528549 0.000000 0.000000 0.000000 3.529551 1.465868 -4.409280 4.643460 4.134344 -7.268117 2.468030 0.490539 4.553285 -22.302649 17.157657 -42.240861 -3.715345 -44.303947 -0.216889 0.000000 0.000000 0.000000 3.601329 1.417272 -4.264475 0.061283 3.370459 3.914630 4.941445 5.218900 -0.790911 15.939257 7.450278 58.888907 -10.008140 27.054560 7.713794 0.000000 0.000000 0.000000 
1.843199 28.427090 -0.233330 0.000000 0.000000 0.000000 14.625588 -74.004663 15.250335 -38.324591 8.955225 27.649079 47.895195 -5.850432 0.880873 -13.463043 5.470280 -22.570314 -0.728008 0.872975 -1.681166 0.000000 0.000000 0.000000 12.732400 -75.131029 14.077389 -27.280418 -11.651912 -34.509712 39.141133 13.487462 -3.618463 -17.436151 -1.531957 24.953012 0.279145 -0.173251 1.222188 0.000000 0.000000 0.000000 9.889643 -74.351520 10.977922 11.565396 0.556959 -8.203723 4.561368 1.889264 -3.828461 0.719742 1.464887 0.560747 0.000000 0.000000 0.000000 4.107034 1.074763 -4.108171 -2.193563 2.401390 1.439635 -9.806309 58.387367 -3.970053 0.000000 0.000000 0.000000 4.180306 1.397297 -4.193373 4.148723 2.478804 -8.788400 1.381297 -0.866453 4.258463 -24.453112 19.461570 -40.398066 -2.754017 -45.141390 0.141221 0.000000 0.000000 0.000000 4.378585 1.317120 -4.008577 0.381327 3.788012 4.893977 5.584835 4.659353 -1.464600 16.435168 4.788208 57.709443 -11.840503 30.032519 9.307331 0.000000 0.000000 0.000000 
1.716971 28.649185 0.063211 0.000000 0.000000 0.000000 13.329726 -72.993678 13.791606 -37.641138 9.485365 27.535262 46.603183 -7.056017 0.858766 -12.281905 5.890766 -23.771054 -1.701824 0.868636 -1.651831 0.000000 0.000000 0.000000 11.191546 -73.986972 12.350316 -25.468244 -13.956237 -35.669625 36.399885 13.734106 -3.760975 -17.653124 -1.231133 27.134293 0.115738 -0.242890 0.764060 0.000000 0.000000 0.000000 9.440659 -73.118678 10.471219 11.984321 0.161406 -7.528313 5.194677 1.632809 -3.551882 0.443931 2.146139 -0.227315 0.000000 0.000000 0.000000 4.817976 0.843634 -3.764488 -2.938923 2.280953 1.438922 -11.766136 58.426763 -3.377819 0.000000 0.000000 0.000000 4.728115 1.265794 -3.897210 3.730259 0.848990 -10.216587 0.259884 -2.051097 4.624438 -26.824596 21.510634 -38.937413 -1.860885 -45.641626 0.429612 0.000000 0.000000 0.000000 5.067099 1.137251 -3.722970 0.783785 3.994651 6.082822 6.108777 4.524061 -1.653053 16.859357 2.302354 57.390275 -13.712679 33.529279 11.027118 0.000000 0.000000 0.000000 
1.556847 28.953260 0.174582 0.000000 0.000000 0.000000 11.955744 -71.446743 12.375685 -37.297614 10.560284 27.611651 44.694863 -8.805802 1.109343 -11.457174 5.206435 -24.522742 -2.499074 0.636384 -0.761011 0.000000 0.000000 0.000000 9.513695 -72.354079 10.738314 -23.852156 -16.543983 -36.387942 33.706277 13.481932 -3.900033 -17.915931 -1.321329 28.693331 -0.263324 -0.145135 0.029044 0.000000 0.000000 0.000000 9.472835 -71.258988 10.349047 12.236476 -0.221924 -6.848228 5.609930 1.394545 -3.353765 0.541414 2.687680 -0.633788 0.000000 0.000000 0.000000 5.321674 0.581249 -3.459580 -3.447170 1.902102 1.645713 -13.287684 57.700864 -2.608795 0.000000 0.000000 0.000000 5.058352 1.093721 -3.603440 3.363044 -0.606739 -11.368379 -0.637910 -3.066293 5.122956 -29.688291 23.500483 -37.587904 -0.955789 -45.995689 0.635022 0.000000 0.000000 0.000000 5.547656 0.887181 -3.520792 1.250245 4.017107 7.317772 6.446170 5.044948 -1.353083 17.155518 0.073042 57.951983 -15.365183 36.516486 12.621688 0.000000 0.000000 0.000000 
